<svg xmlns="http://www.w3.org/2000/svg" xmlns:xlink="http://www.w3.org/1999/xlink" width="810" height="118.55"><rect width="810" height="118.55" rx="0" ry="0" class="a"/><svg height="108.55" viewBox="0 0 80 10.855" width="800" x="5" xmlns="http://www.w3.org/2000/svg" xmlns:xlink="http://www.w3.org/1999/xlink" y="5"><style>.a{fill:#282d35}.c,.f,.g{fill:#6f7783;white-space:pre}.f,.g{fill:#b9c0cb}.g{fill:#a8cc8c}</style><g font-family="Monaco,Consolas,Menlo,'Bitstream Vera Sans Mono','Powerline Symbols',monospace" font-size="1.67"><defs><symbol id="1"><text y="1.67" class="c">│</text></symbol><symbol id="a"><path fill="transparent" d="M0 0h80v6H0z"/></symbol></defs><path class="a" d="M0 0h80v10.855H0z"/><svg width="160"><svg><use xlink:href="#a"/><use xlink:href="#1"/><text y="3.841" style="white-space:pre" fill="#66c2cd">◆</text><text x="3.006" y="3.841" class="f">Deploy</text><text x="10.02" y="3.841" class="f">to</text><text x="13.026" y="3.841" class="f">production?</text><text y="6.012" class="c">│</text><text x="3.006" y="6.012" class="f">○</text><text x="5.01" y="6.012" class="f">Yes,</text><text x="10.02" y="6.012" class="f">ship</text><text x="15.03" y="6.012" class="f">it!</text><text x="19.038" y="6.012" class="f">/</text><text x="21.042" y="6.012" class="g">●</text><text x="23.046" y="6.012" class="f">No,</text><text x="27.054" y="6.012" class="f">abort</text><text y="8.183" class="c">└</text></svg><svg x="80"><use xlink:href="#a"/><use xlink:href="#1"/><text y="3.841" class="g">◇</text><text x="3.006" y="3.841" class="f">Deploy</text><text x="10.02" y="3.841" class="f">to</text><text x="13.026" y="3.841" class="f">production?</text><text y="6.012" class="c">│</text><text x="3.006" y="6.012" class="f">No,</text><text x="7.014" y="6.012" class="f">abort</text></svg></svg></g></svg></svg>