<svg xmlns="http://www.w3.org/2000/svg" xmlns:xlink="http://www.w3.org/1999/xlink" width="860" height="601.04"><rect width="860" height="601.04" rx="5" ry="5" class="a"/><svg y="0%" x="0%"><circle cx="20" cy="20" r="6" fill="#ff5f58"/><circle cx="40" cy="20" r="6" fill="#ffbd2e"/><circle cx="60" cy="20" r="6" fill="#18c132"/></svg><svg height="521.04" viewBox="0 0 80 52.104" width="800" x="25" xmlns="http://www.w3.org/2000/svg" xmlns:xlink="http://www.w3.org/1999/xlink" y="60"><style>.a{fill:#282d35}.f,.g,.h{fill:#b9c0cb;white-space:pre}.g,.h{fill:#6f7783}.h{fill:#a8cc8c}</style><g font-family="Monaco,Consolas,Menlo,'Bitstream Vera Sans Mono','Powerline Symbols',monospace" font-size="1.67"><defs><symbol id="1"><text y="1.67" class="f">spawn</text><text x="6.012" y="1.67" class="f">ruby</text><text x="11.022" y="1.67" class="f">examples/images/confirm_example.rb</text></symbol><symbol id="2"><text y="1.67" class="g">│</text></symbol><symbol id="3"><text y="1.67" class="g">│</text><text x="3.006" y="1.67" class="f">○</text><text x="5.01" y="1.67" class="f">Yes,</text><text x="10.02" y="1.67" class="f">ship</text><text x="15.03" y="1.67" class="f">it!</text><text x="19.038" y="1.67" class="f">/</text><text x="21.042" y="1.67" class="h">●</text><text x="23.046" y="1.67" class="f">No,</text><text x="27.054" y="1.67" class="f">abort</text></symbol><symbol id="4"><text y="1.67" class="g">└</text></symbol><symbol id="5"><text y="1.67" class="h">◇</text><text x="3.006" y="1.67" class="f">Deploy</text><text x="10.02" y="1.67" class="f">to</text><text x="13.026" y="1.67" class="f">production?</text></symbol><symbol id="a"><path fill="transparent" d="M0 0h80v24H0z"/></symbol></defs><path class="a" d="M0 0h80v52.104H0z"/><svg width="240"><svg><use xlink:href="#a"/><use xlink:href="#1"/><use xlink:href="#2" y="2.171"/><text y="6.012" style="white-space:pre" fill="#66c2cd">◆</text><text x="3.006" y="6.012" class="f">Deploy</text><text x="10.02" y="6.012" class="f">to</text><text x="13.026" y="6.012" class="f">production?</text><use xlink:href="#3" y="6.513"/><use xlink:href="#4" y="8.684"/></svg><svg x="80"><use xlink:href="#a"/><use xlink:href="#1"/><use xlink:href="#2" y="2.171"/><use xlink:href="#5" y="4.342"/><use xlink:href="#3" y="6.513"/><use xlink:href="#4" y="8.684"/></svg><svg x="160"><use xlink:href="#a"/><use xlink:href="#1"/><use xlink:href="#2" y="2.171"/><use xlink:href="#5" y="4.342"/><text y="8.183" class="g">│</text><text x="3.006" y="8.183" class="f">No,</text><text x="7.014" y="8.183" class="f">abort</text></svg></svg></g></svg></svg>