<svg xmlns="http://www.w3.org/2000/svg" xmlns:xlink="http://www.w3.org/1999/xlink" width="810" height="183.68"><rect width="810" height="183.68" rx="0" ry="0" class="a"/><svg height="173.68" viewBox="0 0 80 17.368" width="800" x="5" xmlns="http://www.w3.org/2000/svg" xmlns:xlink="http://www.w3.org/1999/xlink" y="5"><style>.a{fill:#282d35}.c,.d,.e{fill:#b9c0cb;white-space:pre}.d,.e{fill:#6f7783}.e{fill:#a8cc8c}</style><g font-family="Monaco,Consolas,Menlo,'Bitstream Vera Sans Mono','Powerline Symbols',monospace" font-size="1.67"><defs><symbol id="1"><text y="1.67" class="c">spawn</text><text x="6.012" y="1.67" class="c">ruby</text><text x="11.022" y="1.67" class="c">examples/images/multiselect_example.rb</text></symbol><symbol id="2"><text y="1.67" class="d">│</text></symbol><symbol id="3"><text y="1.67" class="d">│</text><text x="3.006" y="1.67" class="e">◼</text><text x="5.01" y="1.67" class="c">API</text><text x="9.018" y="1.67" class="c">Mode</text></symbol><symbol id="4"><text y="1.67" class="d">│</text><text x="3.006" y="1.67" class="e">◼</text><text x="5.01" y="1.67" class="c">Authentication</text></symbol><symbol id="5"><text y="1.67" class="d">│</text><text x="3.006" y="1.67" class="c">◻</text><text x="5.01" y="1.67" class="c">Background</text><text x="16.032" y="1.67" class="c">Jobs</text></symbol><symbol id="6"><text y="1.67" class="d">└</text></symbol><symbol id="7"><text y="1.67" class="e">◇</text><text x="3.006" y="1.67" class="c">Select</text><text x="10.02" y="1.67" class="c">features</text><text x="19.038" y="1.67" class="c">to</text><text x="22.044" y="1.67" class="c">install</text></symbol><symbol id="a"><path fill="transparent" d="M0 0h80v9H0z"/></symbol></defs><path class="a" d="M0 0h80v17.368H0z"/><svg width="240"><svg><use xlink:href="#a"/><use xlink:href="#1"/><use xlink:href="#2" y="2.171"/><text y="6.012" style="white-space:pre" fill="#66c2cd">◆</text><text x="3.006" y="6.012" class="c">Select</text><text x="10.02" y="6.012" class="c">features</text><text x="19.038" y="6.012" class="c">to</text><text x="22.044" y="6.012" class="c">install</text><use xlink:href="#3" y="6.513"/><use xlink:href="#4" y="8.684"/><use xlink:href="#5" y="10.855"/><use xlink:href="#6" y="13.026"/></svg><svg x="80"><use xlink:href="#a"/><use xlink:href="#1"/><use xlink:href="#2" y="2.171"/><use xlink:href="#7" y="4.342"/><use xlink:href="#3" y="6.513"/><use xlink:href="#4" y="8.684"/><use xlink:href="#5" y="10.855"/><use xlink:href="#6" y="13.026"/></svg><svg x="160"><use xlink:href="#a"/><use xlink:href="#1"/><use xlink:href="#2" y="2.171"/><use xlink:href="#7" y="4.342"/><text y="8.183" class="d">│</text><text x="3.006" y="8.183" class="c">API</text><text x="7.014" y="8.183" class="c">Mode,</text><text x="13.026" y="8.183" class="c">Authentication</text></svg></svg></g></svg></svg>