<svg xmlns="http://www.w3.org/2000/svg" xmlns:xlink="http://www.w3.org/1999/xlink" width="810" height="183.68"><rect width="810" height="183.68" rx="0" ry="0" class="a"/><svg height="173.68" viewBox="0 0 80 17.368" width="800" x="5" xmlns="http://www.w3.org/2000/svg" xmlns:xlink="http://www.w3.org/1999/xlink" y="5"><style>.a{fill:#282d35}.c,.d,.e{fill:#6f7783;white-space:pre}.d,.e{fill:#a8cc8c}.e{fill:#b9c0cb}</style><g font-family="Monaco,Consolas,Menlo,'Bitstream Vera Sans Mono','Powerline Symbols',monospace" font-size="1.67"><defs><symbol id="1"><text y="1.67" class="c">│</text></symbol><symbol id="2"><text y="1.67" class="c">│</text><text x="3.006" y="1.67" class="d">◼</text><text x="5.01" y="1.67" class="e">API</text><text x="9.018" y="1.67" class="e">Mode</text></symbol><symbol id="3"><text y="1.67" class="c">│</text><text x="3.006" y="1.67" class="d">◼</text><text x="5.01" y="1.67" class="e">Authentication</text></symbol><symbol id="4"><text y="1.67" class="c">│</text><text x="3.006" y="1.67" class="e">◻</text><text x="5.01" y="1.67" class="e">Background</text><text x="16.032" y="1.67" class="e">Jobs</text></symbol><symbol id="5"><text y="1.67" class="c">└</text></symbol><symbol id="6"><text y="1.67" class="d">◇</text><text x="3.006" y="1.67" class="e">Select</text><text x="10.02" y="1.67" class="e">features</text><text x="19.038" y="1.67" class="e">to</text><text x="22.044" y="1.67" class="e">install</text></symbol><symbol id="7"><text y="1.67" class="c">│</text><text x="3.006" y="1.67" class="e">API</text><text x="7.014" y="1.67" class="e">Mode,</text><text x="13.026" y="1.67" class="e">Authentication</text></symbol><symbol id="a"><path fill="transparent" d="M0 0h80v9H0z"/></symbol></defs><path class="a" d="M0 0h80v17.368H0z"/><svg width="320"><svg><use xlink:href="#a"/><use xlink:href="#1"/><text y="3.841" style="white-space:pre" fill="#66c2cd">◆</text><text x="3.006" y="3.841" class="e">Select</text><text x="10.02" y="3.841" class="e">features</text><text x="19.038" y="3.841" class="e">to</text><text x="22.044" y="3.841" class="e">install</text><use xlink:href="#2" y="4.342"/><use xlink:href="#3" y="6.513"/><use xlink:href="#4" y="8.684"/><use xlink:href="#5" y="10.855"/></svg><svg x="80"><use xlink:href="#a"/><use xlink:href="#1"/><use xlink:href="#6" y="2.171"/><use xlink:href="#2" y="4.342"/><use xlink:href="#3" y="6.513"/><use xlink:href="#4" y="8.684"/><use xlink:href="#5" y="10.855"/></svg><svg x="160"><use xlink:href="#a"/><use xlink:href="#1"/><use xlink:href="#6" y="2.171"/><use xlink:href="#7" y="4.342"/></svg><svg x="240"><use xlink:href="#a"/><use xlink:href="#1"/><use xlink:href="#6" y="2.171"/><use xlink:href="#7" y="4.342"/></svg></svg></g></svg></svg>