<svg xmlns="http://www.w3.org/2000/svg" xmlns:xlink="http://www.w3.org/1999/xlink" width="810" height="118.55"><rect width="810" height="118.55" rx="0" ry="0" class="a"/><svg height="108.55" viewBox="0 0 80 10.855" width="800" x="5" xmlns="http://www.w3.org/2000/svg" xmlns:xlink="http://www.w3.org/1999/xlink" y="5"><style>.a{fill:#282d35}.c,.d,.e{fill:#b9c0cb;white-space:pre}.d,.e{fill:#6f7783}.e{fill:#66c2cd}.g{fill:#b9c0cb}.h{fill:#282d35;white-space:pre}</style><g font-family="Monaco,Consolas,Menlo,'Bitstream Vera Sans Mono','Powerline Symbols',monospace" font-size="1.67"><defs><symbol id="1"><text y="1.67" class="c">spawn</text><text x="6.012" y="1.67" class="c">ruby</text><text x="11.022" y="1.67" class="c">examples/images/password_example.rb</text></symbol><symbol id="2"><text y="1.67" class="d">│</text></symbol><symbol id="3"><text y="1.67" class="e">◆</text><text x="3.006" y="1.67" class="c">Enter</text><text x="9.018" y="1.67" class="c">your</text><text x="14.028" y="1.67" class="c">API</text><text x="18.036" y="1.67" class="c">key</text></symbol><symbol id="4"><text y="1.67" class="d">└</text></symbol><symbol id="a"><path fill="transparent" d="M0 0h80v6H0z"/></symbol></defs><path class="a" d="M0 0h80v10.855H0z"/><svg width="480"><svg><use xlink:href="#a"/><use xlink:href="#1"/><use xlink:href="#2" y="2.171"/><text y="6.012" class="e">◆</text><text x="3.006" y="6.012" class="c">Enter</text><text x="9.018" y="6.012" class="c">your</text><text x="14.028" y="6.012" class="c">API</text><text x="18.036" y="6.012" class="c">k</text></svg><svg x="80"><use xlink:href="#a"/><use xlink:href="#1"/><use xlink:href="#2" y="2.171"/><use xlink:href="#3" y="4.342"/><text y="8.183" class="d">│</text><text x="3.006" y="8.183" class="c">▪▪▪▪▪</text></svg><svg x="160"><use xlink:href="#a"/><use xlink:href="#1"/><use xlink:href="#2" y="2.171"/><use xlink:href="#3" y="4.342"/><text y="8.183" class="d">│</text><text x="3.006" y="8.183" class="c">▪▪▪▪▪▪▪▪</text><path class="g" d="M11.022 6.513h1v2.171h-1z"/><text x="11.022" y="8.183" class="h">_</text><use xlink:href="#4" y="8.684"/></svg><svg x="240"><use xlink:href="#a"/><use xlink:href="#1"/><use xlink:href="#2" y="2.171"/><use xlink:href="#3" y="4.342"/><text y="8.183" class="d">│</text><text x="3.006" y="8.183" class="c">▪▪▪▪▪▪▪▪▪</text><path class="g" d="M12.024 6.513h1v2.171h-1z"/><text x="12.024" y="8.183" class="h">_</text><use xlink:href="#4" y="8.684"/></svg><svg x="320"><use xlink:href="#a"/><use xlink:href="#1"/></svg><svg x="400"><use xlink:href="#a"/><use xlink:href="#1"/><use xlink:href="#2" y="2.171"/><text y="6.012" style="white-space:pre" fill="#a8cc8c">◇</text><text x="3.006" y="6.012" class="c">Enter</text><text x="9.018" y="6.012" class="c">your</text><text x="14.028" y="6.012" class="c">API</text><text x="18.036" y="6.012" class="c">key</text><text y="8.183" class="d">│</text><text x="3.006" y="8.183" class="c">▪▪▪▪▪▪▪▪▪</text></svg></svg></g></svg></svg>