<svg xmlns="http://www.w3.org/2000/svg" xmlns:xlink="http://www.w3.org/1999/xlink" width="860" height="601.04"><rect width="860" height="601.04" rx="5" ry="5" class="a"/><svg y="0%" x="0%"><circle cx="20" cy="20" r="6" fill="#ff5f58"/><circle cx="40" cy="20" r="6" fill="#ffbd2e"/><circle cx="60" cy="20" r="6" fill="#18c132"/></svg><svg height="521.04" viewBox="0 0 80 52.104" width="800" x="25" xmlns="http://www.w3.org/2000/svg" xmlns:xlink="http://www.w3.org/1999/xlink" y="60"><style>.a{fill:#282d35}.f,.g{fill:#b9c0cb;white-space:pre}.g{fill:#6f7783}.k{fill:#b9c0cb}.l{fill:#282d35;white-space:pre}</style><g font-family="Monaco,Consolas,Menlo,'Bitstream Vera Sans Mono','Powerline Symbols',monospace" font-size="1.67"><defs><symbol id="1"><text y="1.67" class="f">spawn</text><text x="6.012" y="1.67" class="f">ruby</text><text x="11.022" y="1.67" class="f">examples/images/text_example.rb</text></symbol><symbol id="2"><text y="1.67" class="g">│</text></symbol><symbol id="3"><text y="1.67" style="white-space:pre" fill="#66c2cd">◆</text><text x="3.006" y="1.67" class="f">What</text><text x="8.016" y="1.67" class="f">is</text><text x="11.022" y="1.67" class="f">your</text><text x="16.032" y="1.67" class="f">project</text><text x="24.048" y="1.67" class="f">named?</text></symbol><symbol id="4"><text y="1.67" class="g">└</text></symbol><symbol id="5"><text y="1.67" style="white-space:pre" fill="#a8cc8c">◇</text><text x="3.006" y="1.67" class="f">What</text><text x="8.016" y="1.67" class="f">is</text><text x="11.022" y="1.67" class="f">your</text><text x="16.032" y="1.67" class="f">project</text><text x="24.048" y="1.67" class="f">named?</text></symbol><symbol id="6"><text y="1.67" class="g">│</text><text x="3.006" y="1.67" class="f">hello-world</text></symbol><symbol id="a"><path fill="transparent" d="M0 0h80v24H0z"/></symbol></defs><path class="a" d="M0 0h80v52.104H0z"/><svg width="560"><svg><use xlink:href="#a"/><use xlink:href="#1"/><use xlink:href="#2" y="2.171"/><use xlink:href="#3" y="4.342"/><text y="8.183" class="g">│</text><text x="3.006" y="8.183" class="f">hel</text></svg><svg x="80"><use xlink:href="#a"/><use xlink:href="#1"/><use xlink:href="#2" y="2.171"/><use xlink:href="#3" y="4.342"/><text y="8.183" class="g">│</text><text x="3.006" y="8.183" class="f">hello-wo</text><path class="k" d="M11.022 6.513h1v2.171h-1z"/><text x="11.022" y="8.183" class="l"></text><use xlink:href="#4" y="8.684"/></svg><svg x="160"><use xlink:href="#a"/><use xlink:href="#1"/><use xlink:href="#2" y="2.171"/><use xlink:href="#3" y="4.342"/><text y="8.183" class="g">│</text><text x="3.006" y="8.183" class="f">hello-wor</text><path class="k" d="M12.024 6.513h1v2.171h-1z"/><text x="12.024" y="8.183" class="l"></text><use xlink:href="#4" y="8.684"/></svg><svg x="240"><use xlink:href="#a"/><use xlink:href="#1"/><use xlink:href="#2" y="2.171"/><use xlink:href="#3" y="4.342"/><text y="8.183" class="g">│</text><text x="3.006" y="8.183" class="f">hello-worl</text><path class="k" d="M13.026 6.513h1v2.171h-1z"/><text x="13.026" y="8.183" class="l"></text><use xlink:href="#4" y="8.684"/></svg><svg x="320"><use xlink:href="#a"/><use xlink:href="#1"/><use xlink:href="#2" y="2.171"/><use xlink:href="#3" y="4.342"/><text y="8.183" class="g">│</text><text x="3.006" y="8.183" class="f">hello-world</text><path class="k" d="M14.028 6.513h1v2.171h-1z"/><text x="14.028" y="8.183" class="l"></text><use xlink:href="#4" y="8.684"/></svg><svg x="400"><use xlink:href="#a"/><use xlink:href="#1"/><use xlink:href="#2" y="2.171"/><use xlink:href="#5" y="4.342"/><use xlink:href="#6" y="6.513"/></svg><svg x="480"><use xlink:href="#a"/><use xlink:href="#1"/><use xlink:href="#2" y="2.171"/><use xlink:href="#5" y="4.342"/><use xlink:href="#6" y="6.513"/></svg></svg></g></svg></svg>